# xmcd CD database file
#
# Track frame offsets:
#	150
#	13495
#	29055
#	42837
#	61728
#	82343
#	95382
#	112757
#	128882
#	147985
#	158528
#	174069
#	184549
#	195823
#	214777
#
# Disc length: 3124 seconds
#
# Revision: 1
# Processed by: cddbd v1.5.2PL0 Copyright (c) Steve Scherf et al.
# Submitted via: CDex 1.70beta2
#
DISCID=bf0c320f
DTITLE=Texas Lightning - Meanwhile, Back At The Ranch
DYEAR=2006
DGENRE=Country
TTITLE0=Bad Case Of Loving You
TTITLE1=Like A Virgin
TTITLE2=No No Never
TTITLE3=Kiss
TTITLE4=Over The Mountains
TTITLE5=C'est La Vie
TTITLE6=Highway To Hell
TTITLE7=Dancing Queen
TTITLE8=Man In The Mirror
TTITLE9=Norwegian Wood
TTITLE10=Smoke, Smoke , Smoke (That Cigarette)
TTITLE11=Walking After Midnight
TTITLE12=Raindrops Keep Falling On My Head
TTITLE13=Walk On The Wild Side
TTITLE14=Blue Bayou
EXTD=German Song 2006 for the Eurovision Song Contest YEAR: 2006
EXTT0=
EXTT1=
EXTT2=
EXTT3=
EXTT4=
EXTT5=
EXTT6=
EXTT7=
EXTT8=
EXTT9=
EXTT10=
EXTT11=
EXTT12=
EXTT13=
EXTT14=
PLAYORDER=
